# xmcd
#
# Track frame offsets:
#	150
#	17078
#	32737
#	50061
#	64621
#	83886
#	99851
#	119882
#	149135
#	165527
#	184460
#	200814
#
# Disc length: 2882 seconds
# Revision: 0
# Processed by: cddbd v1.5.2PL0 Copyright (c) Steve Scherf et al.
# Submitted via: dBpowerAMP V12.0
#
DISCID=b50b400c
DTITLE=The Alastair Greene Band - Trouble At Your Door
DYEAR=2014
DGENRE=Blues Rock
TTITLE0=People
TTITLE1=Trouble At Your Door
TTITLE2=Back Where I Belong
TTITLE3=Red Wine Woman
TTITLE4=First Born Son
TTITLE5=Love You So Bad
TTITLE6=Last Train Around The Sun
TTITLE7=Calling For You
TTITLE8=Make The Devil's Day
TTITLE9=Strange Feeling
TTITLE10=Pretty Price To Pay
TTITLE11=The Sweetest Honey Twelve
EXTD=
EXTT0=
EXTT1=
EXTT2=
EXTT3=
EXTT4=
EXTT5=
EXTT6=
EXTT7=
EXTT8=
EXTT9=
EXTT10=
EXTT11=
PLAYORDER=
